<?xml version="1.0" standalone="no"?><!DOCTYPE svg PUBLIC "-//W3C//DTD SVG 1.1//EN" "http://www.w3.org/Graphics/SVG/1.1/DTD/svg11.dtd"><svg height="8775" node-id="1" sillyvg="true" template-height="8775" template-width="11776" version="1.1" viewBox="0 0 11776 8775" width="11776" xmlns="http://www.w3.org/2000/svg" xmlns:xlink="http://www.w3.org/1999/xlink"><defs node-id="113"></defs><path d="M 11776.00 7710.93 L 0.00 7710.93 L 0.00 7716.81 L 11776.00 7716.81 L 11776.00 7710.93 Z" fill="#ebebeb" fill-rule="nonzero" node-id="115" stroke="none" target-height="5.879883" target-width="11776" target-x="0" target-y="7710.93"></path><path d="M 10596.00 8089.88 L 9816.00 8089.88 L 9816.00 8095.76 L 10596.00 8095.76 L 10596.00 8089.88 Z" fill="#ebebeb" fill-rule="nonzero" node-id="117" stroke="none" target-height="5.879883" target-width="780" target-x="9816" target-y="8089.88"></path><path d="M 7800.89 8153.94 L 7596.23 8153.94 L 7596.23 8159.83 L 7800.89 8159.83 L 7800.89 8153.94 Z" fill="#ebebeb" fill-rule="nonzero" node-id="119" stroke="none" target-height="5.8901367" target-width="204.66016" target-x="7596.23" target-y="8153.94"></path><path d="M 9792.45 7871.31 L 9340.49 7871.31 L 9340.49 7877.20 L 9792.45 7877.20 L 9792.45 7871.31 Z" fill="#ebebeb" fill-rule="nonzero" node-id="121" stroke="none" target-height="5.8901367" target-width="451.95996" target-x="9340.49" target-y="7871.31"></path><path d="M 2252.75 7910.88 L 1235.54 7910.88 L 1235.54 7916.77 L 2252.75 7916.77 L 2252.75 7910.88 Z" fill="#ebebeb" fill-rule="nonzero" node-id="123" stroke="none" target-height="5.8901367" target-width="1017.20996" target-x="1235.54" target-y="7910.88"></path><path d="M 2611.68 7910.88 L 2462.60 7910.88 L 2462.60 7916.77 L 2611.68 7916.77 L 2611.68 7910.88 Z" fill="#ebebeb" fill-rule="nonzero" node-id="125" stroke="none" target-height="5.8901367" target-width="149.07983" target-x="2462.6" target-y="7910.88"></path><path d="M 5302.73 8010.27 L 3096.38 8010.27 L 3096.38 8016.16 L 5302.73 8016.16 L 5302.73 8010.27 Z" fill="#ebebeb" fill-rule="nonzero" node-id="127" stroke="none" target-height="5.8901367" target-width="2206.35" target-x="3096.38" target-y="8010.27"></path><path d="M 5581.82 6660.51 L 1034.17 6660.51 C 998.54 6660.44 964.40 6646.25 939.23 6621.03 C 914.06 6595.82 899.92 6561.65 899.92 6526.02 L 899.92 133.30 C 900.23 97.88 914.50 64.01 939.64 39.05 C 964.78 14.09 998.75 0.06 1034.17 0.00 L 5581.82 0.00 C 5617.49 0.00 5651.70 14.17 5676.92 39.39 C 5702.14 64.61 5716.31 98.82 5716.31 134.48 L 5716.31 6526.02 C 5716.31 6561.69 5702.14 6595.90 5676.92 6621.12 C 5651.70 6646.34 5617.49 6660.51 5581.82 6660.51 Z M 1034.17 4.71 C 1000.10 4.77 967.46 18.35 943.39 42.46 C 919.33 66.57 905.81 99.24 905.81 133.30 L 905.81 6526.02 C 905.81 6560.09 919.33 6592.76 943.39 6616.87 C 967.46 6640.98 1000.10 6654.55 1034.17 6654.62 L 5581.82 6654.62 C 5615.91 6654.56 5648.58 6640.99 5672.68 6616.88 C 5696.79 6592.78 5710.36 6560.11 5710.42 6526.02 L 5710.42 133.30 C 5710.36 99.22 5696.79 66.55 5672.68 42.44 C 5648.58 18.34 5615.91 4.77 5581.82 4.71 L 1034.17 4.71 Z" fill="#ebebeb" fill-rule="nonzero" node-id="129" stroke="none" target-height="6660.51" target-width="4816.388" target-x="899.922" target-y="0"></path><path d="M 10676.40 6660.51 L 6128.47 6660.51 C 6092.82 6660.44 6058.65 6646.25 6033.44 6621.05 C 6008.24 6595.84 5994.05 6561.67 5993.98 6526.02 L 5993.98 133.30 C 5994.36 97.86 6008.68 63.99 6033.85 39.04 C 6059.03 14.09 6093.02 0.06 6128.47 0.00 L 10676.40 0.00 C 10711.70 0.12 10745.60 14.18 10770.70 39.14 C 10795.80 64.09 10810.10 97.92 10810.40 133.30 L 10810.40 6526.02 C 10810.40 6561.61 10796.30 6595.74 10771.10 6620.95 C 10746.00 6646.16 10711.90 6660.38 10676.40 6660.51 Z M 6128.47 4.71 C 6094.38 4.77 6061.71 18.34 6037.61 42.44 C 6013.50 66.55 5999.93 99.22 5999.87 133.30 L 5999.87 6526.02 C 5999.93 6560.11 6013.50 6592.78 6037.61 6616.88 C 6061.71 6640.99 6094.38 6654.56 6128.47 6654.62 L 10676.40 6654.62 C 10710.40 6654.56 10743.10 6640.99 10767.20 6616.88 C 10791.30 6592.78 10804.90 6560.11 10805.00 6526.02 L 10805.00 133.30 C 10804.90 99.22 10791.30 66.55 10767.20 42.44 C 10743.10 18.34 10710.40 4.77 10676.40 4.71 L 6128.47 4.71 Z" fill="#ebebeb" fill-rule="nonzero" node-id="131" stroke="none" target-height="6660.51" target-width="4816.4204" target-x="5993.98" target-y="0"></path><path d="M 10469.30 7710.93 L 10469.30 2062.21 L 8609.43 2062.21 L 8609.43 7710.93 L 10469.30 7710.93 Z" fill="#f0f0f0" fill-rule="nonzero" node-id="133" stroke="none" target-height="5648.72" target-width="1859.8701" target-x="8609.43" target-y="2062.21"></path><path d="M 10367.10 3883.02 L 10367.10 2227.31 L 8711.41 2227.31 L 8711.41 3883.02 L 10367.10 3883.02 Z" fill="#f5f5f5" fill-rule="nonzero" node-id="135" stroke="none" target-height="1655.71" target-width="1655.6895" target-x="8711.41" target-y="2227.31"></path><path d="M 10367.10 5687.34 L 10367.10 4031.63 L 8711.41 4031.63 L 8711.41 5687.34 L 10367.10 5687.34 Z" fill="#f5f5f5" fill-rule="nonzero" node-id="137" stroke="none" target-height="1655.71" target-width="1655.6895" target-x="8711.41" target-y="4031.63"></path><path d="M 10367.10 7491.65 L 10367.10 5835.95 L 8711.41 5835.95 L 8711.41 7491.65 L 10367.10 7491.65 Z" fill="#f5f5f5" fill-rule="nonzero" node-id="139" stroke="none" target-height="1655.6997" target-width="1655.6895" target-x="8711.41" target-y="5835.95"></path><path d="M 9172.80 2205.41 L 9905.74 2205.41 C 9905.74 2227.96 9901.29 2250.28 9892.67 2271.11 C 9884.04 2291.95 9871.39 2310.87 9855.45 2326.82 C 9839.50 2342.76 9820.58 2355.41 9799.75 2364.03 C 9778.91 2372.66 9756.59 2377.10 9734.04 2377.10 L 9344.49 2377.10 C 9298.96 2377.10 9255.28 2359.02 9223.08 2326.82 C 9190.89 2294.62 9172.80 2250.95 9172.80 2205.41 Z" fill="#e6e6e6" fill-rule="nonzero" node-id="141" stroke="none" target-height="171.69019" target-width="732.9404" target-x="9172.8" target-y="2205.41"></path><path d="M 9172.80 4009.73 L 9905.74 4009.73 C 9905.74 4032.28 9901.29 4054.60 9892.67 4075.43 C 9884.04 4096.26 9871.39 4115.19 9855.45 4131.13 C 9839.50 4147.08 9820.58 4159.72 9799.75 4168.35 C 9778.91 4176.98 9756.59 4181.42 9734.04 4181.42 L 9344.49 4181.42 C 9298.96 4181.42 9255.28 4163.33 9223.08 4131.13 C 9190.89 4098.94 9172.80 4055.26 9172.80 4009.73 Z" fill="#e6e6e6" fill-rule="nonzero" node-id="143" stroke="none" target-height="171.68994" target-width="732.9404" target-x="9172.8" target-y="4009.73"></path><path d="M 9172.80 5814.05 L 9905.74 5814.05 C 9905.74 5836.59 9901.29 5858.92 9892.67 5879.75 C 9884.04 5900.58 9871.39 5919.51 9855.45 5935.45 C 9839.50 5951.40 9820.58 5964.04 9799.75 5972.67 C 9778.91 5981.30 9756.59 5985.74 9734.04 5985.74 L 9344.49 5985.74 C 9298.96 5985.74 9255.28 5967.65 9223.08 5935.45 C 9190.89 5903.25 9172.80 5859.58 9172.80 5814.05 Z" fill="#e6e6e6" fill-rule="nonzero" node-id="145" stroke="none" target-height="171.69043" target-width="732.9404" target-x="9172.8" target-y="5814.05"></path><path d="M 8609.20 7710.69 L 8609.20 2061.98 L 7680.31 2061.98 L 7680.31 7710.69 L 8609.20 7710.69 Z" fill="#f5f5f5" fill-rule="nonzero" node-id="147" stroke="none" target-height="5648.71" target-width="928.89014" target-x="7680.31" target-y="2061.98"></path><path d="M 1783.36 4049.29 L 1783.36 4100.40 L 1816.09 4100.40 L 1842.94 4501.02 L 2240.97 4501.02 L 2267.82 4100.40 L 2300.56 4100.40 L 2300.56 4049.29 L 1783.36 4049.29 Z" fill="#e6e6e6" fill-rule="nonzero" node-id="149" stroke="none" target-height="451.72998" target-width="517.2001" target-x="1783.36" target-y="4049.29"></path><path d="M 1914.31 3054.93 C 1947.04 2816.11 2269.00 2748.75 2677.86 2739.33 C 3066.71 2730.85 3191.30 2593.31 3191.30 2593.31 C 3191.30 2593.31 3190.12 3150.55 2629.58 3352.39 C 2097.54 3543.87 1881.57 3293.98 1914.31 3054.93 Z" fill="#e6e6e6" fill-rule="nonzero" node-id="151" stroke="none" target-height="950.56006" target-width="1309.7301" target-x="1881.57" target-y="2593.31"></path><path d="M 2112.85 3595.92 C 2106.02 3497.71 1949.40 3317.30 1572.33 3399.50 C 1299.83 3458.61 1198.56 3317.30 1198.56 3317.30 C 1198.56 3317.30 1223.76 3716.27 1633.57 3835.44 C 2022.88 3949.91 2124.86 3768.32 2112.85 3595.92 Z" fill="#e6e6e6" fill-rule="nonzero" node-id="153" stroke="none" target-height="632.60986" target-width="926.30005" target-x="1198.56" target-y="3317.3"></path><path d="M 2026.89 4199.79 C 2024.78 4199.77 2022.70 4199.29 2020.79 4198.39 C 2018.88 4197.50 2017.19 4196.21 2015.82 4194.61 C 1988.50 4162.35 2010.87 4084.86 2041.72 3977.93 C 2081.53 3840.39 2130.99 3669.40 2088.83 3545.28 C 2065.71 3479.81 2038.65 3415.78 2007.81 3353.57 C 1948.46 3228.51 1897.35 3120.40 1939.98 3007.59 C 1940.66 3005.80 1941.69 3004.15 1943.00 3002.76 C 1944.32 3001.36 1945.89 3000.23 1947.64 2999.45 C 1949.39 2998.66 1951.28 2998.22 1953.20 2998.17 C 1955.12 2998.11 1957.03 2998.43 1958.82 2999.11 C 1960.61 2999.77 1962.24 3000.77 1963.64 3002.06 C 1965.03 3003.36 1966.16 3004.91 1966.95 3006.64 C 1967.74 3008.37 1968.17 3010.24 1968.23 3012.15 C 1968.29 3014.05 1967.98 3015.94 1967.30 3017.72 C 1928.91 3119.23 1975.31 3217.20 2033.95 3341.09 C 2065.24 3404.41 2092.77 3469.53 2116.38 3536.10 C 2161.13 3668.70 2110.26 3844.63 2069.28 3985.94 C 2045.73 4069.31 2020.29 4155.28 2037.48 4175.77 C 2039.97 4178.71 2041.19 4182.52 2040.88 4186.35 C 2040.57 4190.19 2038.76 4193.75 2035.84 4196.26 C 2033.36 4198.45 2030.19 4199.70 2026.89 4199.79 Z" fill="#e6e6e6" fill-rule="nonzero" node-id="155" stroke="none" target-height="1201.6799" target-width="263.7799" target-x="1897.35" target-y="2998.11"></path><path d="M 8207.40 4501.02 L 6557.11 4501.02 L 6557.11 7710.93 L 8207.40 7710.93 L 8207.40 4501.02 Z" fill="#f5f5f5" fill-rule="nonzero" node-id="157" stroke="none" target-height="3209.9102" target-width="1650.2905" target-x="6557.11" target-y="4501.02"></path><path d="M 8207.40 4501.02 L 8071.27 4501.02 L 8071.27 7710.93 L 8207.40 7710.93 L 8207.40 4501.02 Z" fill="#f0f0f0" fill-rule="nonzero" node-id="159" stroke="none" target-height="3209.9102" target-width="136.13037" target-x="8071.27" target-y="4501.02"></path><path d="M 2884.65 5950.88 L 6684.29 5950.88 L 6684.29 4592.64 L 2884.65 4592.64 L 2884.65 5950.88 Z" fill="#e6e6e6" fill-rule="nonzero" node-id="161" stroke="none" target-height="1358.2397" target-width="3799.6401" target-x="2884.65" target-y="4592.64"></path><path d="M 4469.23 7710.22 L 2840.14 7710.22 C 2833.89 7710.22 2827.90 7707.74 2823.48 7703.32 C 2819.07 7698.90 2816.58 7692.91 2816.58 7686.67 C 2816.58 7680.42 2819.07 7674.43 2823.48 7670.01 C 2827.90 7665.60 2833.89 7663.11 2840.14 7663.11 L 4469.23 7663.11 C 4704.75 7663.11 4736.07 7594.58 4736.07 7321.61 L 4736.07 3883.02 C 4736.07 3876.77 4738.55 3870.78 4742.97 3866.37 C 4747.39 3861.95 4753.38 3859.47 4759.62 3859.47 C 4765.87 3859.47 4771.86 3861.95 4776.28 3866.37 C 4780.69 3870.78 4783.18 3876.77 4783.18 3883.02 L 4783.18 7321.61 C 4783.18 7613.18 4737.72 7710.22 4469.23 7710.22 Z" fill="#e6e6e6" fill-rule="nonzero" node-id="163" stroke="none" target-height="3850.7502" target-width="1966.6001" target-x="2816.58" target-y="3859.47"></path><path d="M 3067.88 4741.72 L 8207.40 4741.72 L 8207.40 4501.02 L 3067.88 4501.02 L 3067.88 4741.72 Z" fill="#f0f0f0" fill-rule="nonzero" node-id="165" stroke="none" target-height="240.7002" target-width="5139.5205" target-x="3067.88" target-y="4501.02"></path><path d="M 3067.88 4501.02 L 1417.60 4501.02 L 1417.60 7710.93 L 3067.88 7710.93 L 3067.88 4501.02 Z" fill="#f5f5f5" fill-rule="nonzero" node-id="167" stroke="none" target-height="3209.9102" target-width="1650.2799" target-x="1417.6" target-y="4501.02"></path><path d="M 3067.88 4501.02 L 2931.75 4501.02 L 2931.75 7710.93 L 3067.88 7710.93 L 3067.88 4501.02 Z" fill="#f0f0f0" fill-rule="nonzero" node-id="169" stroke="none" target-height="3209.9102" target-width="136.12988" target-x="2931.75" target-y="4501.02"></path><path d="M 4925.19 4501.02 L 4569.32 4501.02 L 4655.76 3808.12 L 5011.87 3808.12 L 4925.19 4501.02 Z" fill="#f0f0f0" fill-rule="nonzero" node-id="171" stroke="none" target-height="692.8999" target-width="442.5503" target-x="4569.32" target-y="3808.12"></path><path d="M 5004.09 4501.02 L 4647.99 4501.02 L 4734.66 3808.12 L 5090.53 3808.12 L 5004.09 4501.02 Z" fill="#f5f5f5" fill-rule="nonzero" node-id="173" stroke="none" target-height="692.8999" target-width="442.53955" target-x="4647.99" target-y="3808.12"></path><path d="M 5047.43 4154.57 L 4691.32 4154.57 L 4734.66 3808.12 L 5090.53 3808.12 L 5047.43 4154.57 Z" fill="#f0f0f0" fill-rule="nonzero" node-id="175" stroke="none" target-height="346.4497" target-width="399.20996" target-x="4691.32" target-y="3808.12"></path><path d="M 3739.12 4071.67 L 6257.53 4071.67 C 6262.49 4071.68 6267.40 4070.63 6271.92 4068.59 C 6276.44 4066.55 6280.47 4063.57 6283.75 4059.84 C 6287.03 4056.12 6289.47 4051.74 6290.92 4047.00 C 6292.37 4042.25 6292.79 4037.26 6292.15 4032.34 L 6098.09 2479.79 C 6097.10 2471.32 6093.02 2463.51 6086.63 2457.86 C 6080.24 2452.21 6071.99 2449.12 6063.46 2449.17 L 3545.05 2449.17 C 3540.11 2449.17 3535.23 2450.21 3530.73 2452.24 C 3526.22 2454.27 3522.20 2457.22 3518.93 2460.92 C 3515.66 2464.62 3513.21 2468.97 3511.74 2473.68 C 3510.27 2478.40 3509.83 2483.37 3510.43 2488.27 L 3704.49 4041.05 C 3705.53 4049.50 3709.62 4057.28 3716.00 4062.92 C 3722.38 4068.56 3730.60 4071.68 3739.12 4071.67 Z" fill="#f0f0f0" fill-rule="nonzero" node-id="177" stroke="none" target-height="1622.5598" target-width="2782.96" target-x="3509.83" target-y="2449.12"></path><path d="M 3776.56 4071.67 L 6294.98 4071.67 C 6299.94 4071.68 6304.84 4070.63 6309.36 4068.59 C 6313.89 4066.55 6317.92 4063.57 6321.20 4059.84 C 6324.47 4056.12 6326.92 4051.74 6328.37 4047.00 C 6329.82 4042.26 6330.24 4037.26 6329.60 4032.34 L 6135.53 2479.79 C 6134.43 2471.22 6130.17 2463.36 6123.60 2457.75 C 6117.03 2452.13 6108.61 2449.16 6099.97 2449.41 L 3582.50 2449.41 C 3577.56 2449.41 3572.68 2450.45 3568.17 2452.48 C 3563.67 2454.50 3559.65 2457.46 3556.38 2461.16 C 3553.10 2464.85 3550.65 2469.20 3549.19 2473.92 C 3547.72 2478.63 3547.27 2483.60 3547.87 2488.51 L 3741.94 4041.29 C 3743.03 4049.70 3747.15 4057.42 3753.52 4063.01 C 3759.89 4068.61 3768.09 4071.68 3776.56 4071.67 Z" fill="#f5f5f5" fill-rule="nonzero" node-id="179" stroke="none" target-height="1622.52" target-width="2782.9702" target-x="3547.27" target-y="2449.16"></path><path d="M 6248.34 3985.71 L 6066.76 2532.55 C 6066.42 2530.22 6065.27 2528.08 6063.50 2526.53 C 6061.73 2524.97 6059.46 2524.10 6057.10 2524.07 L 3638.78 2524.07 C 3637.40 2524.02 3636.02 2524.27 3634.74 2524.82 C 3633.47 2525.36 3632.33 2526.18 3631.41 2527.22 C 3630.49 2528.25 3629.80 2529.48 3629.41 2530.80 C 3629.01 2532.13 3628.92 2533.53 3629.13 2534.90 L 3810.71 3988.30 C 3811.05 3990.63 3812.21 3992.76 3813.98 3994.32 C 3815.75 3995.87 3818.01 3996.74 3820.37 3996.78 L 6238.69 3996.78 C 6240.07 3996.75 6241.44 3996.44 6242.69 3995.86 C 6243.95 3995.27 6245.07 3994.43 6245.98 3993.39 C 6246.89 3992.34 6247.57 3991.12 6247.98 3989.80 C 6248.38 3988.47 6248.51 3987.08 6248.34 3985.71 Z" fill="#e6e6e6" fill-rule="nonzero" node-id="181" stroke="none" target-height="1472.76" target-width="2619.5898" target-x="3628.92" target-y="2524.02"></path><path d="M 5990.22 3996.77 L 5351.01 2524.07 L 4790.48 2524.07 L 5429.91 3996.77 L 5990.22 3996.77 Z" fill="#ebebeb" fill-rule="nonzero" node-id="183" stroke="none" target-height="1472.7" target-width="1199.7402" target-x="4790.48" target-y="2524.07"></path><path d="M 5321.81 3996.77 L 4682.61 2524.07 L 4480.77 2524.07 L 5119.97 3996.77 L 5321.81 3996.77 Z" fill="#ebebeb" fill-rule="nonzero" node-id="185" stroke="none" target-height="1472.7" target-width="841.04004" target-x="4480.77" target-y="2524.07"></path><path d="M 5327.93 4501.02 L 4748.08 4501.02 L 4748.08 4493.72 C 4748.08 4478.42 4754.16 4463.74 4764.98 4452.92 C 4775.81 4442.10 4790.48 4436.02 4805.79 4436.02 L 5270.23 4436.02 C 5285.53 4436.02 5300.21 4442.10 5311.03 4452.92 C 5321.85 4463.74 5327.93 4478.42 5327.93 4493.72 L 5327.93 4501.02 Z" fill="#f5f5f5" fill-rule="nonzero" node-id="187" stroke="none" target-height="65" target-width="579.8501" target-x="4748.08" target-y="4436.02"></path><path d="M 4815.21 4501.02 L 4421.89 4501.02 L 4421.89 4493.72 C 4421.89 4478.42 4427.97 4463.74 4438.79 4452.92 C 4449.61 4442.10 4464.29 4436.02 4479.59 4436.02 L 4757.50 4436.02 C 4772.81 4436.02 4787.49 4442.10 4798.31 4452.92 C 4809.13 4463.74 4815.21 4478.42 4815.21 4493.72 L 4815.21 4501.02 Z" fill="#f0f0f0" fill-rule="nonzero" node-id="189" stroke="none" target-height="65" target-width="393.31982" target-x="4421.89" target-y="4436.02"></path><path d="M 5968.78 4501.02 L 4176.01 4501.02 L 4127.49 4357.12 L 5735.62 4357.12 L 5968.78 4501.02 Z" fill="#f5f5f5" fill-rule="nonzero" node-id="191" stroke="none" target-height="143.8999" target-width="1841.2896" target-x="4127.49" target-y="4357.12"></path><path d="M 4373.37 4501.02 L 4077.09 4501.02 L 4037.05 4357.12 L 4333.10 4357.12 L 4373.37 4501.02 Z" fill="#f0f0f0" fill-rule="nonzero" node-id="193" stroke="none" target-height="143.8999" target-width="336.32007" target-x="4037.05" target-y="4357.12"></path><path d="M 6422.39 4380.67 L 6692.06 4380.67 C 6707.87 4380.67 6723.52 4383.78 6738.12 4389.83 C 6752.72 4395.88 6765.99 4404.75 6777.17 4415.92 C 6788.34 4427.10 6797.21 4440.36 6803.25 4454.97 C 6809.30 4469.57 6812.42 4485.22 6812.42 4501.02 L 6302.04 4501.02 C 6302.04 4485.22 6305.16 4469.57 6311.20 4454.97 C 6317.25 4440.36 6326.12 4427.10 6337.29 4415.92 C 6348.47 4404.75 6361.74 4395.88 6376.34 4389.83 C 6390.94 4383.78 6406.59 4380.67 6422.39 4380.67 Z" fill="#f0f0f0" fill-rule="nonzero" node-id="195" stroke="none" target-height="120.3501" target-width="510.37988" target-x="6302.04" target-y="4380.67"></path><path d="M 4664.94 674.53 L 2029.24 674.53 L 2029.24 1996.97 L 4664.94 1996.97 L 4664.94 674.53 Z" fill="#e6e6e6" fill-rule="nonzero" node-id="197" stroke="none" target-height="1322.4409" target-width="2635.7" target-x="2029.24" target-y="674.529"></path><path d="M 4795.42 674.53 L 2062.68 674.53 L 2062.68 1996.97 L 4795.42 1996.97 L 4795.42 674.53 Z" fill="#f0f0f0" fill-rule="nonzero" node-id="199" stroke="none" target-height="1322.4409" target-width="2732.74" target-x="2062.68" target-y="674.529"></path><path d="M 4691.09 1892.64 L 4691.09 778.63 L 2166.78 778.63 L 2166.78 1892.64 L 4691.09 1892.64 Z" fill="#ffffff" fill-rule="nonzero" node-id="201" stroke="none" target-height="1114.011" target-width="2524.3098" target-x="2166.78" target-y="778.629"></path><path d="M 2266.88 1335.63 C 2266.88 1324.33 2271.37 1313.48 2279.36 1305.49 C 2287.36 1297.50 2298.20 1293.00 2309.51 1293.00 L 4548.60 1293.00 C 4559.90 1293.00 4570.75 1297.50 4578.74 1305.49 C 4586.73 1313.48 4591.23 1324.33 4591.23 1335.63 C 4591.23 1341.23 4590.12 1346.77 4587.98 1351.95 C 4585.84 1357.12 4582.70 1361.82 4578.74 1365.78 C 4574.78 1369.73 4570.08 1372.87 4564.91 1375.02 C 4559.74 1377.16 4554.19 1378.26 4548.60 1378.26 L 2309.51 1378.26 C 2303.91 1378.26 2298.37 1377.16 2293.19 1375.02 C 2288.02 1372.87 2283.32 1369.73 2279.36 1365.78 C 2275.41 1361.82 2272.27 1357.12 2270.12 1351.95 C 2267.98 1346.77 2266.88 1341.23 2266.88 1335.63 Z" fill="#f5f5f5" fill-rule="nonzero" node-id="203" stroke="none" target-height="85.26001" target-width="2324.35" target-x="2266.88" target-y="1293"></path><path d="M 5888.00 8774.53 C 8410.01 8774.53 10454.50 8655.17 10454.50 8507.92 C 10454.50 8360.68 8410.01 8241.32 5888.00 8241.32 C 3365.99 8241.32 1321.50 8360.68 1321.50 8507.92 C 1321.50 8655.17 3365.99 8774.53 5888.00 8774.53 Z" fill="#f5f5f5" fill-rule="nonzero" node-id="205" stroke="none" target-height="533.20996" target-width="9133" target-x="1321.5" target-y="8241.32"></path><path d="M 2207.06 4592.64 L 7750.49 4592.64 C 7906.58 4592.64 8033.12 4466.11 8033.12 4310.02 L 8033.12 837.51 C 8033.12 681.42 7906.58 554.89 7750.49 554.89 L 2207.06 554.89 C 2050.97 554.89 1924.44 681.42 1924.44 837.51 L 1924.44 4310.02 C 1924.44 4466.11 2050.97 4592.64 2207.06 4592.64 Z" fill="#263238" fill-rule="nonzero" node-id="207" stroke="none" target-height="4037.7542" target-width="6108.68" target-x="1924.44" target-y="554.886"></path><path d="M 3527.38 8286.54 L 4866.79 6947.84 L 4899.76 6915.10 L 4899.76 2944.00 C 4899.76 2929.88 4905.37 2916.35 4915.35 2906.36 C 4925.33 2896.38 4938.87 2890.77 4952.99 2890.77 L 5004.80 2890.77 C 5018.92 2890.77 5032.46 2896.38 5042.44 2906.36 C 5052.42 2916.35 5058.03 2929.88 5058.03 2944.00 L 5058.03 6914.40 L 5090.76 6947.13 L 6429.70 8286.54 C 6433.95 8290.76 6437.33 8295.79 6439.64 8301.33 C 6441.95 8306.86 6443.13 8312.80 6443.13 8318.80 C 6443.13 8324.80 6441.95 8330.74 6439.64 8336.28 C 6437.33 8341.82 6433.95 8346.84 6429.70 8351.07 L 6382.59 8398.17 C 6374.04 8406.64 6362.48 8411.40 6350.44 8411.40 C 6338.40 8411.40 6326.85 8406.64 6318.30 8398.17 L 5058.03 7137.91 L 5058.03 8358.61 C 5058.03 8372.72 5052.42 8386.26 5042.44 8396.24 C 5032.46 8406.23 5018.92 8411.83 5004.80 8411.83 L 4952.99 8411.83 C 4945.92 8411.96 4938.89 8410.67 4932.33 8408.06 C 4925.76 8405.44 4919.78 8401.54 4914.74 8396.58 C 4909.69 8391.63 4905.69 8385.72 4902.96 8379.20 C 4900.22 8372.68 4898.82 8365.68 4898.82 8358.61 L 4898.82 7138.38 L 3639.49 8398.64 C 3630.75 8406.86 3619.22 8411.43 3607.22 8411.43 C 3595.23 8411.43 3583.69 8406.86 3574.96 8398.64 L 3527.85 8351.54 C 3519.44 8342.84 3514.70 8331.24 3514.61 8319.13 C 3514.52 8307.03 3519.10 8295.36 3527.38 8286.54 Z" fill="#263238" fill-rule="nonzero" node-id="209" stroke="none" target-height="5521.19" target-width="2928.6099" target-x="3514.52" target-y="2890.77"></path><path d="M 7338.57 472.45 L 7159.81 472.45 L 7159.81 496.00 L 7338.57 496.00 L 7338.57 472.45 Z" fill="#429cfd" fill-rule="nonzero" node-id="211" stroke="none" target-height="23.552002" target-width="178.75977" target-x="7159.81" target-y="472.453"></path><path d="M 6994.95 472.45 L 6622.12 472.45 L 6622.12 496.00 L 6994.95 496.00 L 6994.95 472.45 Z" fill="#429cfd" fill-rule="nonzero" node-id="213" stroke="none" target-height="23.552002" target-width="372.83008" target-x="6622.12" target-y="472.453"></path><path d="M 2264.76 4592.64 L 7808.20 4592.64 C 7964.29 4592.64 8090.82 4466.11 8090.82 4310.02 L 8090.82 837.51 C 8090.82 681.42 7964.29 554.89 7808.20 554.89 L 2264.76 554.89 C 2108.67 554.89 1982.14 681.42 1982.14 837.51 L 1982.14 4310.02 C 1982.14 4466.11 2108.67 4592.64 2264.76 4592.64 Z" fill="#429cfd" fill-rule="nonzero" node-id="215" stroke="none" target-height="4037.7542" target-width="6108.6797" target-x="1982.14" target-y="554.886"></path><path d="M 7925.95 4309.78 L 7925.95 837.27 C 7925.95 772.24 7873.23 719.51 7808.19 719.51 L 2264.76 719.51 C 2199.72 719.51 2147.00 772.24 2147.00 837.27 L 2147.00 4309.78 C 2147.00 4374.82 2199.72 4427.54 2264.76 4427.54 L 7808.19 4427.54 C 7873.23 4427.54 7925.95 4374.82 7925.95 4309.78 Z" fill="#fafafa" fill-rule="nonzero" node-id="217" stroke="none" target-height="3708.0261" target-width="5778.95" target-x="2147" target-y="719.514"></path><path d="M 4823.92 6967.39 L 5133.86 6967.39 C 5175.10 6967.39 5208.52 6933.96 5208.52 6892.73 L 5208.52 6681.00 C 5208.52 6639.76 5175.10 6606.34 5133.86 6606.34 L 4823.92 6606.34 C 4782.69 6606.34 4749.26 6639.76 4749.26 6681.00 L 4749.26 6892.73 C 4749.26 6933.96 4782.69 6967.39 4823.92 6967.39 Z" fill="#429cfd" fill-rule="nonzero" node-id="219" stroke="none" target-height="361.0503" target-width="459.26025" target-x="4749.26" target-y="6606.34"></path><g node-id="356"><path d="M 4298.00 3819.90 C 4507.62 3819.90 4712.53 3757.74 4886.82 3641.28 C 5061.11 3524.83 5196.95 3359.30 5277.17 3165.64 C 5357.39 2971.98 5378.37 2758.88 5337.48 2553.29 C 5296.59 2347.71 5195.65 2158.86 5047.42 2010.64 C 4899.20 1862.42 4710.36 1761.48 4504.77 1720.58 C 4299.18 1679.69 4086.08 1700.68 3892.42 1780.89 C 3698.76 1861.11 3533.24 1996.95 3416.78 2171.24 C 3300.32 2345.53 3238.16 2550.44 3238.16 2760.06 C 3238.16 3041.15 3349.83 3310.72 3548.58 3509.48 C 3747.34 3708.24 4016.92 3819.90 4298.00 3819.90 Z M 4298.00 1721.89 C 4503.43 1721.89 4704.24 1782.80 4875.04 1896.93 C 5045.85 2011.06 5178.97 2173.27 5257.59 2363.06 C 5336.20 2552.85 5356.77 2761.68 5316.69 2963.16 C 5276.61 3164.64 5177.69 3349.71 5032.44 3494.96 C 4887.18 3640.22 4702.11 3739.14 4500.63 3779.22 C 4299.16 3819.29 4090.32 3798.72 3900.53 3720.11 C 3710.75 3641.50 3548.53 3508.37 3434.40 3337.57 C 3320.28 3166.77 3259.36 2965.95 3259.36 2760.53 C 3259.67 2485.16 3369.20 2221.16 3563.92 2026.44 C 3758.63 1831.73 4022.63 1722.20 4298.00 1721.89 Z" fill="#000000" fill-opacity="0.1" fill-rule="nonzero" group-id="1" node-id="223" stroke="none" target-height="2140.21" target-width="2140.2102" target-x="3238.16" target-y="1679.69"></path></g><path d="M 3033.50 1173.36 L 3966.39 1173.36 C 3999.62 1173.36 4031.49 1186.56 4054.99 1210.06 C 4078.49 1233.56 4091.69 1265.43 4091.69 1298.66 L 4091.69 3022.66 C 4091.69 3055.90 4078.49 3087.76 4054.99 3111.26 C 4031.49 3134.76 3999.62 3147.96 3966.39 3147.96 L 2772.54 3147.96 C 2739.31 3147.96 2707.44 3134.76 2683.94 3111.26 C 2660.44 3087.76 2647.24 3055.90 2647.24 3022.66 L 2647.24 1559.61 L 3033.50 1173.36 Z" fill="#429cfd" fill-rule="nonzero" node-id="226" stroke="none" target-height="1974.6" target-width="1444.45" target-x="2647.24" target-y="1173.36"></path><path d="M 3088.37 2975.56 L 3865.59 2975.56 C 3879.94 2975.19 3893.57 2969.21 3903.57 2958.91 C 3913.56 2948.61 3919.12 2934.80 3919.05 2920.45 C 3919.05 2905.96 3913.30 2892.06 3903.05 2881.81 C 3892.80 2871.56 3878.90 2865.81 3864.41 2865.81 L 3087.20 2865.81 C 3072.89 2866.11 3059.27 2872.00 3049.23 2882.21 C 3039.20 2892.41 3033.56 2906.14 3033.50 2920.45 C 3033.50 2935.02 3039.27 2949.01 3049.56 2959.33 C 3059.84 2969.66 3073.80 2975.50 3088.37 2975.56 Z" fill="#ffffff" fill-rule="nonzero" node-id="228" stroke="none" target-height="109.75" target-width="885.6201" target-x="3033.5" target-y="2865.81"></path><path d="M 3453.90 1455.28 L 3864.41 1455.28 C 3878.90 1455.28 3892.80 1449.52 3903.05 1439.27 C 3913.30 1429.03 3919.05 1415.13 3919.05 1400.64 C 3919.05 1386.15 3913.30 1372.25 3903.05 1362.00 C 3892.80 1351.75 3878.90 1346.00 3864.41 1346.00 L 3453.90 1346.00 C 3439.41 1346.00 3425.51 1351.75 3415.26 1362.00 C 3405.02 1372.25 3399.26 1386.15 3399.26 1400.64 C 3399.26 1415.13 3405.02 1429.03 3415.26 1439.27 C 3425.51 1449.52 3439.41 1455.28 3453.90 1455.28 Z" fill="#ffffff" fill-rule="nonzero" node-id="230" stroke="none" target-height="109.28003" target-width="519.79004" target-x="3399.26" target-y="1346"></path><path d="M 3186.12 1672.19 L 3864.41 1672.19 C 3878.90 1672.19 3892.80 1666.43 3903.05 1656.19 C 3913.30 1645.94 3919.05 1632.04 3919.05 1617.55 C 3919.05 1603.06 3913.30 1589.16 3903.05 1578.91 C 3892.80 1568.67 3878.90 1562.91 3864.41 1562.91 L 3186.12 1562.91 C 3171.62 1562.91 3157.73 1568.67 3147.48 1578.91 C 3137.23 1589.16 3131.47 1603.06 3131.47 1617.55 C 3131.47 1632.04 3137.23 1645.94 3147.48 1656.19 C 3157.73 1666.43 3171.62 1672.19 3186.12 1672.19 Z" fill="#ffffff" fill-rule="nonzero" node-id="232" stroke="none" target-height="109.27991" target-width="787.5801" target-x="3131.47" target-y="1562.91"></path><path d="M 2874.52 1889.58 L 3863.70 1889.58 C 3878.20 1889.58 3892.09 1883.82 3902.34 1873.57 C 3912.59 1863.33 3918.35 1849.43 3918.35 1834.94 C 3918.35 1820.44 3912.59 1806.55 3902.34 1796.30 C 3892.09 1786.05 3878.20 1780.29 3863.70 1780.29 L 2874.52 1780.29 C 2860.01 1780.29 2846.08 1786.04 2835.80 1796.28 C 2825.52 1806.52 2819.71 1820.42 2819.64 1834.94 C 2819.71 1849.45 2825.52 1863.35 2835.80 1873.59 C 2846.08 1883.83 2860.01 1889.58 2874.52 1889.58 Z" fill="#ffffff" fill-rule="nonzero" node-id="234" stroke="none" target-height="109.28992" target-width="1098.7102" target-x="2819.64" target-y="1780.29"></path><path d="M 2874.52 2106.73 L 3449.90 2106.73 C 3464.41 2106.73 3478.33 2100.98 3488.62 2090.74 C 3498.90 2080.50 3504.71 2066.60 3504.77 2052.09 C 3504.71 2037.57 3498.90 2023.68 3488.62 2013.43 C 3478.33 2003.19 3464.41 1997.45 3449.90 1997.45 L 2874.52 1997.45 C 2860.01 1997.45 2846.08 2003.19 2835.80 2013.43 C 2825.52 2023.68 2819.71 2037.57 2819.64 2052.09 C 2819.71 2066.60 2825.52 2080.50 2835.80 2090.74 C 2846.08 2100.98 2860.01 2106.73 2874.52 2106.73 Z" fill="#ffffff" fill-rule="nonzero" node-id="236" stroke="none" target-height="109.28003" target-width="685.1301" target-x="2819.64" target-y="1997.45"></path><path d="M 3713.91 2106.73 L 3864.41 2106.73 C 3878.90 2106.73 3892.80 2100.97 3903.05 2090.72 C 3913.30 2080.48 3919.05 2066.58 3919.05 2052.09 C 3919.05 2037.59 3913.30 2023.70 3903.05 2013.45 C 3892.80 2003.20 3878.90 1997.45 3864.41 1997.45 L 3713.91 1997.45 C 3699.42 1997.45 3685.52 2003.20 3675.28 2013.45 C 3665.03 2023.70 3659.27 2037.59 3659.27 2052.09 C 3659.27 2066.58 3665.03 2080.48 3675.28 2090.72 C 3685.52 2100.97 3699.42 2106.73 3713.91 2106.73 Z" fill="#ffffff" fill-rule="nonzero" node-id="238" stroke="none" target-height="109.28003" target-width="259.78003" target-x="3659.27" target-y="1997.45"></path><path d="M 2874.52 2323.88 L 3863.70 2323.88 C 3878.20 2323.88 3892.09 2318.12 3902.34 2307.87 C 3912.59 2297.62 3918.35 2283.73 3918.35 2269.23 C 3918.35 2254.74 3912.59 2240.84 3902.34 2230.60 C 3892.09 2220.35 3878.20 2214.59 3863.70 2214.59 L 2874.52 2214.59 C 2860.01 2214.59 2846.08 2220.34 2835.80 2230.58 C 2825.52 2240.82 2819.71 2254.72 2819.64 2269.23 C 2819.71 2283.75 2825.52 2297.65 2835.80 2307.89 C 2846.08 2318.13 2860.01 2323.88 2874.52 2323.88 Z" fill="#ffffff" fill-rule="nonzero" node-id="240" stroke="none" target-height="109.289795" target-width="1098.7102" target-x="2819.64" target-y="2214.59"></path><path d="M 3256.53 2541.03 L 3864.41 2541.03 C 3878.90 2541.03 3892.80 2535.27 3903.05 2525.02 C 3913.30 2514.77 3919.05 2500.88 3919.05 2486.38 C 3919.05 2471.89 3913.30 2458.00 3903.05 2447.75 C 3892.80 2437.50 3878.90 2431.74 3864.41 2431.74 L 3256.53 2431.74 C 3242.02 2431.74 3228.10 2437.49 3217.81 2447.73 C 3207.53 2457.97 3201.72 2471.87 3201.66 2486.38 C 3201.72 2500.90 3207.53 2514.80 3217.81 2525.04 C 3228.10 2535.28 3242.02 2541.03 3256.53 2541.03 Z" fill="#ffffff" fill-rule="nonzero" node-id="242" stroke="none" target-height="109.29004" target-width="717.39014" target-x="3201.66" target-y="2431.74"></path><path d="M 2874.52 2541.03 L 3036.79 2541.03 C 3051.29 2541.03 3065.18 2535.27 3075.43 2525.02 C 3085.68 2514.77 3091.43 2500.88 3091.43 2486.38 C 3091.43 2471.89 3085.68 2458.00 3075.43 2447.75 C 3065.18 2437.50 3051.29 2431.74 3036.79 2431.74 L 2874.52 2431.74 C 2860.01 2431.74 2846.08 2437.49 2835.80 2447.73 C 2825.52 2457.97 2819.71 2471.87 2819.64 2486.38 C 2819.71 2500.90 2825.52 2514.80 2835.80 2525.04 C 2846.08 2535.28 2860.01 2541.03 2874.52 2541.03 Z" fill="#ffffff" fill-rule="nonzero" node-id="244" stroke="none" target-height="109.29004" target-width="271.79004" target-x="2819.64" target-y="2431.74"></path><path d="M 2874.52 2758.18 L 3863.70 2758.18 C 3878.20 2758.18 3892.09 2752.42 3902.34 2742.17 C 3912.59 2731.92 3918.35 2718.03 3918.35 2703.53 C 3918.35 2689.04 3912.59 2675.15 3902.34 2664.90 C 3892.09 2654.65 3878.20 2648.89 3863.70 2648.89 L 2874.52 2648.89 C 2860.01 2648.89 2846.08 2654.64 2835.80 2664.88 C 2825.52 2675.12 2819.71 2689.02 2819.64 2703.53 C 2819.71 2718.05 2825.52 2731.95 2835.80 2742.19 C 2846.08 2752.43 2860.01 2758.18 2874.52 2758.18 Z" fill="#ffffff" fill-rule="nonzero" node-id="246" stroke="none" target-height="109.29004" target-width="1098.7102" target-x="2819.64" target-y="2648.89"></path><path d="M 3033.50 1173.36 L 3033.50 1434.32 C 3033.50 1467.55 3020.30 1499.42 2996.80 1522.92 C 2973.30 1546.41 2941.43 1559.61 2908.20 1559.61 L 2647.24 1559.61 L 3033.50 1173.36 Z" fill="#000000" fill-opacity="0.2" fill-rule="nonzero" group-id="2" node-id="250" stroke="none" target-height="386.25" target-width="386.26" target-x="2647.24" target-y="1173.36"></path><path d="M 6162.85 1331.39 L 6162.85 958.33 C 5847.85 958.00 5541.55 1061.72 5291.56 1253.38 C 5041.57 1445.03 4861.88 1713.88 4780.40 2018.17 C 4698.92 2322.45 4720.23 2645.13 4841.00 2936.06 C 4961.78 3226.99 5175.26 3469.89 5448.28 3627.01 L 5634.82 3303.87 C 5433.29 3187.65 5275.77 3008.16 5186.68 2793.25 C 5097.59 2578.35 5081.91 2340.05 5142.09 2115.33 C 5202.27 1890.62 5334.94 1692.04 5519.50 1550.42 C 5704.07 1408.81 5930.21 1332.06 6162.85 1332.10 L 6162.85 1331.39 Z" fill="#263238" fill-rule="nonzero" node-id="253" stroke="none" target-height="2669.008" target-width="1463.9302" target-x="4698.92" target-y="958.002"></path><path d="M 7592.46 2388.17 C 7592.40 2009.01 7441.76 1645.40 7173.68 1377.27 C 6905.60 1109.15 6542.01 958.46 6162.85 958.33 L 6162.85 1331.39 C 6443.11 1331.46 6711.87 1442.82 6910.04 1640.99 C 7108.21 1839.16 7219.57 2107.92 7219.63 2388.17 L 7592.46 2388.17 Z" fill="#000000" fill-opacity="0.2" fill-rule="nonzero" group-id="3" node-id="257" stroke="none" target-height="1429.8398" target-width="1429.6099" target-x="6162.85" target-y="958.33"></path><path d="M 7592.46 2388.17 L 7219.63 2388.17 C 7219.63 2573.63 7170.81 2755.83 7078.08 2916.44 C 6985.35 3077.06 6851.98 3210.44 6691.36 3303.17 C 6530.75 3395.90 6348.55 3444.72 6163.09 3444.72 C 5977.63 3444.72 5795.43 3395.90 5634.82 3303.17 L 5448.29 3627.01 C 5665.59 3752.19 5911.99 3818.01 6162.77 3817.86 C 6413.55 3817.71 6659.88 3751.59 6877.03 3626.14 C 7094.18 3500.70 7274.51 3320.34 7399.92 3103.17 C 7525.33 2886.00 7591.41 2639.66 7591.52 2388.88 L 7592.46 2388.17 Z" fill="#429cfd" fill-rule="nonzero" node-id="260" stroke="none" target-height="1429.8401" target-width="2144.17" target-x="5448.29" target-y="2388.17"></path><path d="M 4151.28 3414.33 L 4603.24 2830.48 L 5055.20 3414.33 L 4842.53 3414.33 L 4842.53 4170.35 L 4363.95 4170.35 L 4363.95 3414.33 L 4151.28 3414.33 Z" fill="#429cfd" fill-rule="nonzero" node-id="262" stroke="none" target-height="1339.8701" target-width="903.9204" target-x="4151.28" target-y="2830.48"></path><path d="M 7960.57 8213.29 L 7782.05 8151.58 L 7877.67 7721.29 L 8056.43 7783.23 L 7960.57 8213.29 Z" fill="#ff8b7b" fill-rule="nonzero" node-id="264" stroke="none" target-height="492" target-width="274.38037" target-x="7782.05" target-y="7721.29"></path><path d="M 7877.67 7721.52 L 7828.45 7943.15 L 8006.97 8005.09 L 8056.43 7783.47 L 7877.67 7721.52 Z" fill="#000000" fill-opacity="0.2" fill-rule="nonzero" group-id="4" node-id="268" stroke="none" target-height="283.56982" target-width="227.97998" target-x="7828.45" target-y="7721.52"></path><path d="M 9678.22 8314.80 L 9489.34 8314.80 L 9341.90 7876.97 L 9531.02 7876.97 L 9678.22 8314.80 Z" fill="#ff8b7b" fill-rule="nonzero" node-id="271" stroke="none" target-height="437.8296" target-width="336.31934" target-x="9341.9" target-y="7876.97"></path><path d="M 9531.02 7877.20 L 9341.90 7877.20 L 9417.98 8102.83 L 9607.10 8102.83 L 9531.02 7877.20 Z" fill="#000000" fill-opacity="0.2" fill-rule="nonzero" group-id="5" node-id="275" stroke="none" target-height="225.62988" target-width="265.19922" target-x="9341.9" target-y="7877.2"></path><path d="M 9464.14 8292.89 L 9694.47 8292.89 C 9698.22 8292.91 9701.84 8294.21 9704.75 8296.56 C 9707.66 8298.92 9709.69 8302.19 9710.49 8305.85 L 9747.94 8474.01 C 9748.83 8478.09 9748.79 8482.31 9747.81 8486.37 C 9746.83 8490.43 9744.94 8494.21 9742.29 8497.43 C 9739.63 8500.65 9736.28 8503.22 9732.49 8504.96 C 9728.69 8506.70 9724.55 8507.55 9720.38 8507.45 C 9646.19 8506.28 9592.02 8501.80 9498.52 8501.80 C 9441.05 8501.80 9267.95 8507.92 9188.58 8507.92 C 9109.21 8507.92 9098.84 8429.50 9131.35 8422.20 C 9276.90 8390.40 9386.65 8346.59 9433.28 8304.44 C 9441.84 8297.00 9452.80 8292.90 9464.14 8292.89 Z" fill="#263238" fill-rule="nonzero" node-id="278" stroke="none" target-height="215.03027" target-width="649.99023" target-x="9098.84" target-y="8292.89"></path><path d="M 7790.53 8131.33 L 7985.54 8198.92 C 7989.10 8200.13 7992.13 8202.52 7994.14 8205.69 C 7996.16 8208.86 7997.03 8212.62 7996.61 8216.35 L 7976.83 8387.34 C 7976.46 8391.54 7975.14 8395.60 7972.96 8399.21 C 7970.78 8402.81 7967.80 8405.87 7964.25 8408.15 C 7960.70 8410.42 7956.67 8411.85 7952.49 8412.33 C 7948.30 8412.80 7944.06 8412.31 7940.09 8410.89 C 7869.43 8385.45 7769.81 8346.12 7681.02 8316.68 C 7577.62 8280.88 7486.24 8255.45 7364.95 8213.52 C 7291.70 8188.09 7296.88 8106.83 7330.09 8110.84 C 7480.35 8128.74 7595.52 8164.77 7742.01 8132.27 C 7757.78 8127.39 7774.59 8127.07 7790.53 8131.33 Z" fill="#263238" fill-rule="nonzero" node-id="280" stroke="none" target-height="305.96973" target-width="705.3296" target-x="7291.7" target-y="8106.83"></path><path d="M 5587.24 1974.84 L 7516.62 3692.25 L 7483.65 3729.22 L 5571.46 1992.26 L 5587.24 1974.84 Z" fill="#263238" fill-rule="nonzero" node-id="282" stroke="none" target-height="1754.38" target-width="1945.1602" target-x="5571.46" target-y="1974.84"></path><path d="M 8817.63 2631.70 C 8803.97 2672.68 8790.78 2708.25 8775.71 2745.46 C 8760.64 2782.67 8745.56 2818.70 8728.61 2854.97 C 8696.26 2927.20 8660.54 2998.41 8621.45 3068.59 C 8581.60 3139.92 8537.06 3208.53 8488.14 3273.96 C 8436.63 3344.27 8376.23 3407.60 8308.44 3462.38 L 8279.94 3483.58 C 8270.29 3490.41 8259.45 3497.00 8249.09 3503.60 C 8228.57 3516.12 8207.24 3527.29 8185.26 3537.04 C 8143.59 3555.58 8100.20 3570.01 8055.73 3580.14 C 7972.95 3598.50 7888.26 3606.88 7803.48 3605.11 C 7722.85 3603.26 7642.48 3595.39 7563.02 3581.55 C 7523.92 3575.19 7485.06 3566.48 7446.67 3558.00 C 7408.28 3549.52 7370.84 3538.92 7330.80 3525.73 L 7362.36 3387.48 C 7396.51 3390.31 7434.43 3393.14 7470.46 3395.02 C 7506.49 3396.91 7543.47 3397.14 7579.74 3397.61 C 7651.25 3398.46 7722.74 3395.00 7793.83 3387.25 C 7860.79 3380.53 7926.87 3366.79 7990.96 3346.27 C 8019.78 3336.81 8047.63 3324.58 8074.10 3309.76 C 8086.39 3303.24 8098.20 3295.84 8109.43 3287.62 C 8114.61 3283.38 8119.79 3279.85 8125.21 3275.38 L 8141.69 3261.25 C 8188.82 3216.90 8230.78 3167.36 8266.75 3113.57 C 8305.53 3055.28 8341.06 2994.89 8373.21 2932.70 C 8406.18 2869.34 8437.03 2804.10 8466.24 2737.92 C 8481.00 2704.63 8495.13 2671.27 8508.63 2637.82 C 8521.82 2604.62 8535.95 2569.29 8547.26 2538.91 L 8817.63 2631.70 Z" fill="#ff8b7b" fill-rule="nonzero" node-id="284" stroke="none" target-height="1067.97" target-width="1486.8301" target-x="7330.8" target-y="2538.91"></path><path d="M 8894.41 2538.91 C 8934.92 2714.84 8609.43 3209.90 8609.43 3209.90 L 8201.28 2911.50 C 8278.24 2765.53 8370.62 2628.22 8476.84 2501.93 C 8636.05 2322.46 8849.90 2345.54 8894.41 2538.91 Z" fill="#263238" fill-rule="nonzero" node-id="286" stroke="none" target-height="887.43994" target-width="733.63965" target-x="8201.28" target-y="2322.46"></path><path d="M 7386.38 3387.72 L 7184.77 3342.26 L 7214.21 3581.79 C 7251.64 3591.77 7291.28 3589.52 7327.34 3575.37 C 7363.40 3561.21 7393.99 3535.90 7414.64 3503.12 L 7386.38 3387.72 Z" fill="#ff8b7b" fill-rule="nonzero" node-id="288" stroke="none" target-height="249.51001" target-width="229.87012" target-x="7184.77" target-y="3342.26"></path><path d="M 7053.12 3336.38 L 7118.59 3517.49 L 7214.21 3581.79 L 7184.77 3342.26 L 7053.12 3336.38 Z" fill="#ff8b7b" fill-rule="nonzero" node-id="290" stroke="none" target-height="245.41016" target-width="161.08984" target-x="7053.12" target-y="3336.38"></path><path d="M 9740.16 2512.53 C 9494.05 3217.20 9489.57 3980.29 9462.01 4133.38 C 9315.05 4113.83 8761.58 4039.17 8459.88 3998.42 C 8392.05 2916.45 8689.27 2380.40 8689.27 2380.40 C 8689.27 2380.40 8754.75 2371.69 8843.30 2367.92 C 8871.10 2367.92 8901.01 2366.03 8932.09 2366.27 C 8949.29 2366.27 8966.72 2366.27 8984.38 2367.45 C 9127.40 2378.75 9269.65 2398.25 9410.44 2425.86 C 9437.05 2430.80 9464.13 2436.46 9490.28 2442.34 C 9516.42 2448.23 9537.38 2453.88 9560.93 2459.77 C 9662.21 2485.44 9740.16 2512.53 9740.16 2512.53 Z" fill="#263238" fill-rule="nonzero" node-id="292" stroke="none" target-height="1767.3499" target-width="1348.1104" target-x="8392.05" target-y="2366.03"></path><path d="M 9560.70 2458.83 L 9481.56 2518.65 C 9381.00 2594.72 9265.36 2665.15 9099.32 2665.15 C 9080.47 2665.15 9061.16 2665.15 9041.85 2662.32 C 8904.30 2648.66 8851.78 2581.77 8831.76 2527.84 C 8822.80 2501.78 8819.20 2474.18 8821.18 2446.70 C 8823.17 2419.21 8830.69 2392.42 8843.31 2367.92 C 8871.10 2367.92 8901.01 2366.03 8932.10 2366.27 C 8949.29 2366.27 8966.72 2366.27 8984.38 2367.45 C 9127.40 2378.75 9269.65 2398.25 9410.44 2425.86 C 9437.05 2430.80 9464.14 2436.46 9490.28 2442.34 C 9516.42 2448.23 9538.56 2452.94 9560.70 2458.83 Z" fill="#429cfd" fill-rule="nonzero" node-id="294" stroke="none" target-height="299.11987" target-width="741.5" target-x="8819.2" target-y="2366.03"></path><path d="M 9432.81 1939.51 C 9387.59 2073.05 9326.83 2320.58 9410.44 2424.91 C 9325.89 2488.98 9217.08 2561.28 9053.39 2545.03 C 8889.70 2528.78 8933.51 2420.68 8984.38 2367.45 C 9142.18 2351.67 9153.49 2237.68 9141.24 2127.45 L 9432.81 1939.51 Z" fill="#ff8b7b" fill-rule="nonzero" node-id="296" stroke="none" target-height="621.77" target-width="543.1094" target-x="8889.7" target-y="1939.51"></path><path d="M 9313.87 2016.29 L 9141.47 2127.45 C 9144.63 2153.07 9145.57 2178.92 9144.30 2204.70 C 9203.89 2204.70 9292.68 2151.00 9307.04 2090.71 C 9313.86 2066.53 9316.18 2041.30 9313.87 2016.29 Z" fill="#000000" fill-opacity="0.2" fill-rule="nonzero" group-id="6" node-id="300" stroke="none" target-height="188.40991" target-width="174.70996" target-x="9141.47" target-y="2016.29"></path><path d="M 9085.89 1403.93 C 8939.40 1391.92 8888.76 1744.50 8980.14 1812.09 C 9071.52 1879.68 9360.04 1426.31 9085.89 1403.93 Z" fill="#263238" fill-rule="nonzero" node-id="303" stroke="none" target-height="487.76" target-width="471.28027" target-x="8888.76" target-y="1391.92"></path><path d="M 9476.85 1735.55 C 9440.58 1919.49 9428.57 2029.00 9321.88 2112.38 C 9161.73 2236.73 8945.05 2120.86 8924.80 1929.61 C 8907.37 1757.45 8969.78 1485.42 9161.49 1435.02 C 9203.72 1423.96 9248.07 1423.88 9290.34 1434.79 C 9332.60 1445.70 9371.38 1467.23 9402.98 1497.34 C 9434.58 1527.46 9457.95 1565.15 9470.88 1606.84 C 9483.81 1648.53 9485.87 1692.84 9476.85 1735.55 Z" fill="#ff8b7b" fill-rule="nonzero" node-id="305" stroke="none" target-height="812.85" target-width="578.5" target-x="8907.37" target-y="1423.88"></path><path d="M 9439.41 1915.49 C 9348.73 1972.01 9261.35 1469.41 9513.12 1481.19 C 9821.18 1495.79 9632.77 1795.61 9439.41 1915.49 Z" fill="#263238" fill-rule="nonzero" node-id="307" stroke="none" target-height="502.59998" target-width="559.8301" target-x="9261.35" target-y="1469.41"></path><path d="M 9517.83 1553.02 C 9383.35 1596.83 8813.63 1539.12 8742.97 1398.05 C 8783.49 1402.60 8824.50 1397.44 8862.62 1382.97 C 8862.62 1382.97 8742.03 1350.24 8722.72 1239.78 C 8936.10 1348.82 9386.65 1206.80 9547.04 1327.86 C 9681.05 1427.72 9622.41 1519.10 9517.83 1553.02 Z" fill="#263238" fill-rule="nonzero" node-id="309" stroke="none" target-height="390.0299" target-width="958.3301" target-x="8722.72" target-y="1206.8"></path><path d="M 9583.07 1507.33 C 9583.07 1507.33 9575.30 1452.69 9733.81 1515.33 C 9602.86 1491.78 9587.31 1531.11 9587.31 1531.11 L 9583.07 1507.33 Z" fill="#263238" fill-rule="nonzero" node-id="311" stroke="none" target-height="78.420044" target-width="158.50977" target-x="9575.3" target-y="1452.69"></path><path d="M 9533.14 1951.28 C 9518.18 1969.22 9499.83 1984.02 9479.14 1994.85 C 9458.45 2005.68 9435.82 2012.33 9412.56 2014.40 C 9350.15 2019.58 9330.83 1961.17 9357.92 1908.42 C 9381.47 1861.31 9444.35 1801.26 9502.06 1820.80 C 9559.76 1840.35 9569.89 1907.71 9533.14 1951.28 Z" fill="#ff8b7b" fill-rule="nonzero" node-id="313" stroke="none" target-height="218.31995" target-width="239.05957" target-x="9330.83" target-y="1801.26"></path><path d="M 7775.69 7878.85 L 8078.33 7984.13 C 8078.33 7984.13 8374.62 6816.18 8467.41 6234.45 C 8495.68 6057.57 8558.80 5812.63 8635.10 5551.44 C 8731.20 5221.71 8848.25 4866.55 8943.16 4588.40 C 9043.50 4295.41 9118.63 4088.39 9118.63 4088.39 L 8459.17 3999.60 C 8459.17 3999.60 7957.28 5538.25 7900.75 6112.45 C 7842.81 6708.32 7775.69 7878.85 7775.69 7878.85 Z" fill="#429cfd" fill-rule="nonzero" node-id="315" stroke="none" target-height="3984.5298" target-width="1342.94" target-x="7775.69" target-y="3999.6"></path><path d="M 8635.10 5550.26 C 8731.20 5220.54 8848.25 4865.37 8943.16 4587.22 L 8884.05 4434.84 C 8707.41 4619.49 8624.51 5220.30 8635.10 5550.26 Z" fill="#000000" fill-opacity="0.2" fill-rule="nonzero" group-id="7" node-id="319" stroke="none" target-height="1115.4199" target-width="318.6504" target-x="8624.51" target-y="4434.84"></path><path d="M 8815.28 4046.47 C 8815.28 4046.47 8782.78 5666.14 8827.29 6218.20 C 8875.81 6823.01 9328.95 8059.02 9328.95 8059.02 L 9675.40 8059.02 C 9675.40 8059.02 9444.35 6928.53 9373.46 6339.73 C 9292.68 5670.85 9462.02 4132.90 9462.02 4132.90 L 8815.28 4046.47 Z" fill="#429cfd" fill-rule="nonzero" node-id="322" stroke="none" target-height="4012.55" target-width="892.6201" target-x="8782.78" target-y="4046.47"></path><path d="M 9287.73 8066.56 L 9695.41 8066.56 L 9695.41 7944.80 L 9239.68 7936.79 L 9287.73 8066.56 Z" fill="#263238" fill-rule="nonzero" node-id="324" stroke="none" target-height="129.77002" target-width="455.73047" target-x="9239.68" target-y="7936.79"></path><path d="M 7735.18 7872.73 L 8095.76 7997.55 L 8136.04 7880.97 L 7735.18 7735.42 L 7735.18 7872.73 Z" fill="#263238" fill-rule="nonzero" node-id="326" stroke="none" target-height="262.12988" target-width="400.85986" target-x="7735.18" target-y="7735.42"></path><path d="M 9188.34 1749.44 C 9186.46 1764.52 9176.80 1775.58 9166.91 1774.41 C 9157.02 1773.23 9150.66 1759.57 9152.78 1744.50 C 9154.90 1729.42 9164.32 1718.35 9174.21 1719.53 C 9184.10 1720.71 9190.46 1734.37 9188.34 1749.44 Z" fill="#263238" fill-rule="nonzero" node-id="328" stroke="none" target-height="57.22998" target-width="39.799805" target-x="9150.66" target-y="1718.35"></path><path d="M 9017.59 1726.36 C 9015.71 1741.43 9006.05 1752.74 8996.16 1751.33 C 8986.27 1749.91 8979.91 1736.72 8981.79 1721.65 C 8983.68 1706.58 8993.57 1695.27 9003.46 1696.69 C 9013.35 1698.10 9020.42 1711.29 9017.59 1726.36 Z" fill="#263238" fill-rule="nonzero" node-id="330" stroke="none" target-height="57.46997" target-width="40.509766" target-x="8979.91" target-y="1695.27"></path><path d="M 9070.82 1741.20 C 9046.64 1784.94 9016.52 1825.12 8981.32 1860.61 C 8990.63 1869.50 9001.80 1876.22 9014.01 1880.29 C 9026.23 1884.36 9039.19 1885.68 9051.98 1884.16 L 9070.82 1741.20 Z" fill="#ff5652" fill-rule="nonzero" node-id="332" stroke="none" target-height="144.4801" target-width="89.5" target-x="8981.32" target-y="1741.2"></path><path d="M 9109.91 1932.91 C 9127.04 1933.19 9144.04 1929.98 9159.87 1923.46 C 9175.71 1916.94 9190.04 1907.25 9202.00 1894.99 C 9202.78 1894.09 9203.17 1892.91 9203.08 1891.72 C 9203.00 1890.52 9202.44 1889.42 9201.53 1888.63 C 9200.63 1887.85 9199.45 1887.47 9198.26 1887.55 C 9197.06 1887.64 9195.95 1888.20 9195.17 1889.11 C 9181.74 1902.51 9165.33 1912.55 9147.28 1918.40 C 9129.23 1924.26 9110.05 1925.76 9091.31 1922.79 C 9090.12 1922.63 9088.92 1922.95 9087.97 1923.68 C 9087.02 1924.41 9086.40 1925.48 9086.25 1926.67 C 9086.09 1927.86 9086.41 1929.06 9087.14 1930.01 C 9087.87 1930.96 9088.94 1931.58 9090.13 1931.73 C 9096.69 1932.58 9103.30 1932.98 9109.91 1932.91 Z" fill="#263238" fill-rule="nonzero" node-id="334" stroke="none" target-height="45.71997" target-width="117.08008" target-x="9086.09" target-y="1887.47"></path><path d="M 9248.63 1701.40 C 9250.03 1701.71 9251.48 1701.71 9252.87 1701.40 C 9253.92 1700.83 9254.84 1700.06 9255.58 1699.14 C 9256.32 1698.22 9256.87 1697.15 9257.20 1696.01 C 9257.53 1694.87 9257.63 1693.68 9257.49 1692.50 C 9257.36 1691.32 9256.99 1690.18 9256.41 1689.15 C 9249.73 1676.51 9240.13 1665.65 9228.42 1657.46 C 9216.71 1649.26 9203.21 1643.98 9189.05 1642.05 C 9187.87 1641.98 9186.70 1642.15 9185.59 1642.54 C 9184.47 1642.94 9183.45 1643.54 9182.58 1644.33 C 9181.70 1645.12 9180.99 1646.07 9180.49 1647.13 C 9179.98 1648.20 9179.69 1649.35 9179.63 1650.52 C 9179.53 1651.69 9179.67 1652.86 9180.03 1653.97 C 9180.40 1655.08 9180.98 1656.10 9181.75 1656.98 C 9182.52 1657.86 9183.46 1658.58 9184.51 1659.08 C 9185.56 1659.59 9186.70 1659.89 9187.87 1659.95 C 9198.99 1661.51 9209.57 1665.70 9218.75 1672.17 C 9227.92 1678.65 9235.42 1687.21 9240.63 1697.16 C 9241.46 1698.51 9242.65 1699.62 9244.05 1700.37 C 9245.46 1701.11 9247.04 1701.47 9248.63 1701.40 Z" fill="#263238" fill-rule="nonzero" node-id="336" stroke="none" target-height="59.72998" target-width="78.09961" target-x="9179.53" target-y="1641.98"></path><path d="M 8951.88 1657.59 C 8953.37 1657.63 8954.85 1657.28 8956.17 1656.57 C 8957.49 1655.87 8958.61 1654.84 8959.42 1653.59 C 8965.36 1644.02 8973.51 1636.02 8983.18 1630.24 C 8992.85 1624.46 9003.76 1621.08 9015.00 1620.38 C 9017.35 1620.32 9019.59 1619.36 9021.26 1617.69 C 9022.93 1616.03 9023.89 1613.78 9023.95 1611.43 C 9023.95 1609.05 9023.00 1606.78 9021.33 1605.10 C 9019.65 1603.42 9017.37 1602.48 9015.00 1602.48 C 9000.77 1603.14 8986.91 1607.24 8974.61 1614.41 C 8962.31 1621.59 8951.92 1631.64 8944.34 1643.69 C 8943.67 1644.67 8943.20 1645.76 8942.96 1646.92 C 8942.71 1648.07 8942.70 1649.27 8942.92 1650.43 C 8943.14 1651.59 8943.59 1652.69 8944.23 1653.68 C 8944.88 1654.67 8945.72 1655.51 8946.70 1656.18 C 8948.26 1657.12 8950.05 1657.61 8951.88 1657.59 Z" fill="#263238" fill-rule="nonzero" node-id="338" stroke="none" target-height="55.150024" target-width="81.25" target-x="8942.7" target-y="1602.48"></path><path d="M 9401.49 8326.10 C 9418.17 8325.63 9434.76 8323.34 9450.95 8319.27 C 9451.77 8319.01 9452.50 8318.53 9453.07 8317.88 C 9453.64 8317.22 9454.01 8316.43 9454.16 8315.58 C 9454.30 8314.73 9454.21 8313.85 9453.90 8313.05 C 9453.58 8312.25 9453.05 8311.55 9452.36 8311.03 C 9445.29 8306.79 9384.53 8269.34 9363.57 8279.94 C 9361.25 8281.17 9359.30 8282.99 9357.94 8285.23 C 9356.57 8287.47 9355.83 8290.04 9355.80 8292.66 C 9355.36 8297.05 9356.00 8301.48 9357.64 8305.58 C 9359.27 8309.68 9361.88 8313.33 9365.22 8316.21 C 9375.86 8323.48 9388.63 8326.96 9401.49 8326.10 Z M 9437.99 8312.91 C 9405.96 8319.27 9381.23 8318.09 9370.87 8309.38 C 9368.59 8307.44 9366.83 8304.95 9365.76 8302.15 C 9364.69 8299.35 9364.34 8296.33 9364.75 8293.36 C 9364.68 8292.29 9364.90 8291.22 9365.40 8290.26 C 9365.90 8289.31 9366.65 8288.51 9367.57 8287.95 C 9378.41 8282.30 9413.26 8298.55 9437.99 8313.85 L 9437.99 8312.91 Z" fill="#429cfd" fill-rule="nonzero" node-id="340" stroke="none" target-height="57.620117" target-width="98.93945" target-x="9355.36" target-y="8269.34"></path><path d="M 9450.01 8319.27 C 9450.78 8319.48 9451.59 8319.48 9452.36 8319.27 C 9453.02 8318.84 9453.56 8318.24 9453.93 8317.54 C 9454.30 8316.84 9454.49 8316.06 9454.48 8315.27 C 9454.48 8312.91 9449.77 8258.27 9427.63 8240.37 C 9425.06 8238.10 9422.01 8236.41 9418.72 8235.43 C 9415.42 8234.46 9411.95 8234.22 9408.55 8234.72 C 9405.23 8234.71 9402.00 8235.86 9399.42 8237.96 C 9396.84 8240.07 9395.08 8243.00 9394.42 8246.26 C 9390.42 8267.46 9428.34 8308.91 9447.89 8319.51 L 9450.01 8319.27 Z M 9411.85 8243.20 C 9415.62 8243.18 9419.24 8244.61 9421.98 8247.21 C 9435.29 8264.17 9443.10 8284.79 9444.35 8306.32 C 9425.04 8291.48 9400.78 8259.22 9403.14 8247.91 C 9403.14 8246.73 9403.14 8243.91 9409.73 8243.20 L 9411.85 8243.20 Z" fill="#429cfd" fill-rule="nonzero" node-id="342" stroke="none" target-height="85.29004" target-width="64.07031" target-x="9390.42" target-y="8234.22"></path><path d="M 7764.39 8148.99 C 7765.20 8148.96 7765.99 8148.72 7766.68 8148.31 C 7767.38 8147.90 7767.97 8147.33 7768.39 8146.64 C 7768.90 8145.87 7769.17 8144.97 7769.17 8144.05 C 7769.17 8143.13 7768.90 8142.22 7768.39 8141.46 C 7761.80 8134.39 7702.68 8073.16 7676.78 8077.63 C 7674.35 8078.07 7672.09 8079.12 7670.19 8080.69 C 7668.29 8082.26 7666.83 8084.29 7665.94 8086.58 C 7664.04 8090.21 7663.05 8094.25 7663.05 8098.36 C 7663.05 8102.46 7664.04 8106.50 7665.94 8110.13 C 7679.60 8133.68 7733.06 8144.99 7763.92 8149.23 L 7764.39 8148.99 Z M 7679.13 8086.34 C 7694.20 8086.34 7728.12 8114.61 7751.67 8137.92 C 7709.98 8130.86 7681.01 8119.08 7673.48 8105.42 C 7672.20 8103.07 7671.53 8100.44 7671.53 8097.77 C 7671.53 8095.09 7672.20 8092.46 7673.48 8090.11 C 7673.71 8089.19 7674.22 8088.35 7674.93 8087.72 C 7675.65 8087.09 7676.54 8086.69 7677.48 8086.58 L 7679.13 8086.34 Z" fill="#429cfd" fill-rule="nonzero" node-id="344" stroke="none" target-height="76.069824" target-width="106.12012" target-x="7663.05" target-y="8073.16"></path><path d="M 7764.39 8148.99 L 7765.57 8148.99 C 7766.35 8148.81 7767.06 8148.40 7767.60 8147.81 C 7768.15 8147.23 7768.51 8146.49 7768.63 8145.69 C 7768.63 8143.57 7781.11 8093.88 7764.86 8067.27 C 7762.56 8063.45 7759.52 8060.12 7755.92 8057.49 C 7752.33 8054.87 7748.24 8052.98 7743.90 8051.96 C 7731.65 8049.13 7726.47 8053.84 7723.88 8058.32 C 7713.75 8077.39 7742.96 8130.86 7761.33 8148.05 C 7762.20 8148.73 7763.29 8149.07 7764.39 8148.99 Z M 7737.07 8059.73 L 7741.78 8059.73 C 7744.98 8060.44 7747.99 8061.82 7750.63 8063.77 C 7753.26 8065.71 7755.46 8068.19 7757.09 8071.03 C 7765.14 8091.17 7766.71 8113.32 7761.56 8134.39 C 7744.13 8113.43 7725.76 8073.15 7731.89 8061.61 C 7732.12 8062.56 7733.30 8060.67 7737.07 8060.67 L 7737.07 8059.73 Z" fill="#429cfd" fill-rule="nonzero" node-id="346" stroke="none" target-height="99.93994" target-width="67.35986" target-x="7713.75" target-y="8049.13"></path><path d="M 9775.73 2620.63 C 9794.33 2654.78 9809.64 2684.93 9824.72 2717.43 C 9839.79 2749.93 9854.39 2781.73 9868.76 2813.99 C 9896.55 2879.00 9922.46 2945.18 9945.30 3012.54 C 9968.15 3079.89 9988.40 3149.14 10005.60 3219.56 L 10017.60 3273.02 L 10027.50 3327.43 C 10031.00 3345.33 10033.20 3364.17 10035.70 3382.77 L 10039.30 3410.56 L 10039.30 3417.40 L 10040.50 3428.94 C 10040.50 3437.89 10040.50 3445.66 10040.50 3452.49 C 10038.50 3502.01 10027.00 3550.69 10006.80 3595.92 C 9991.32 3632.25 9973.30 3667.43 9952.84 3701.20 C 9915.04 3763.16 9873.18 3822.57 9827.54 3879.01 C 9739.64 3988.41 9643.33 4090.78 9539.50 4185.19 L 9433.99 4090.98 C 9509.59 3981.94 9584.49 3869.36 9651.84 3757.96 C 9685.00 3703.69 9715.27 3647.72 9742.52 3590.27 C 9754.79 3564.49 9765.26 3537.89 9773.84 3510.66 C 9780.19 3493.15 9783.31 3474.64 9783.03 3456.02 C 9783.03 3457.20 9783.03 3457.43 9783.03 3454.84 L 9781.85 3449.43 L 9776.91 3425.87 C 9773.61 3411.04 9770.78 3396.20 9766.54 3381.12 L 9754.77 3335.90 L 9741.34 3290.69 C 9722.50 3230.39 9701.54 3169.86 9677.99 3109.57 C 9654.44 3049.28 9629.47 2989.45 9603.09 2929.87 C 9589.90 2899.96 9576.71 2870.28 9562.82 2840.84 L 9522.54 2755.58 L 9775.73 2620.63 Z" fill="#ff8b7b" fill-rule="nonzero" node-id="348" stroke="none" target-height="1564.56" target-width="606.50977" target-x="9433.99" target-y="2620.63"></path><path d="M 9740.16 2512.53 C 9909.03 2576.82 10022.80 2984.98 10022.80 2984.98 L 9673.75 3333.55 C 9673.75 3333.55 9523.01 3031.38 9461.78 2805.99 C 9395.60 2560.34 9535.50 2434.81 9740.16 2512.53 Z" fill="#263238" fill-rule="nonzero" node-id="350" stroke="none" target-height="898.74" target-width="627.2002" target-x="9395.6" target-y="2434.81"></path><path d="M 9477.09 4062.96 L 9295.03 4123.01 L 9459.90 4299.89 C 9459.90 4299.89 9603.56 4214.16 9566.82 4132.90 L 9477.09 4062.96 Z" fill="#ff8b7b" fill-rule="nonzero" node-id="352" stroke="none" target-height="236.93018" target-width="308.5293" target-x="9295.03" target-y="4062.96"></path><path d="M 9206.48 4253.96 L 9349.44 4393.63 L 9459.43 4299.89 L 9294.80 4123.01 L 9206.48 4253.96 Z" fill="#ff8b7b" fill-rule="nonzero" node-id="354" stroke="none" target-height="270.62012" target-width="252.94922" target-x="9206.48" target-y="4123.01"></path></svg>