<?xml version="1.0" standalone="no"?><!DOCTYPE svg PUBLIC "-//W3C//DTD SVG 1.1//EN" "http://www.w3.org/Graphics/SVG/1.1/DTD/svg11.dtd"><svg class="icon" width="32px" height="32.00px" viewBox="0 0 1024 1024" version="1.1" xmlns="http://www.w3.org/2000/svg"><path d="M512.000439 512m-512 0a512 512 0 1 0 1024 0 512 512 0 1 0-1024 0Z" fill="#FFC330" /><path d="M36.425582 702.025143A510.610286 510.610286 0 0 1 0.000439 512C0.000439 229.229714 229.230153 0 512.000439 0c259.613257 0 474.112 193.243429 507.479771 443.728457C984.810496 713.289143 754.439753 921.6 475.42901 921.6 295.892553 921.6 136.499639 835.349943 36.425582 702.025143z" fill="#FED63A" /><path d="M633.242039 389.441829C656.603867 360.287086 699.494839 336.457143 718.819182 336.457143c24.8832 0 73.362286 27.706514 95.100343 65.770057a14.628571 14.628571 0 1 0 25.409828-14.511543C812.32501 340.465371 754.132553 307.2 718.83381 307.2c-28.935314 0-79.872 28.291657-108.426971 63.941486a14.628571 14.628571 0 0 0 22.8352 18.285714z" fill="#712506" /><path d="M614.517467 387.657143c29.257143-36.512914 84.289829-65.828571 104.301715-65.828572 20.041143 0 78.555429 43.885714 107.812571 80.457143 2.9696 3.730286-62.186057-29.257143-109.714286-29.257143-47.542857 0-105.413486 18.373486-102.4 14.628572z" fill="#712506" opacity=".8" /><path d="M390.758839 389.441829C367.39701 360.287086 324.506039 336.457143 305.181696 336.457143c-24.8832 0-73.362286 27.706514-95.100343 65.770057a14.628571 14.628571 0 1 1-25.409828-14.511543C211.675867 340.465371 269.868325 307.2 305.167067 307.2c28.935314 0 79.872 28.291657 108.426972 63.941486a14.628571 14.628571 0 0 1-22.8352 18.285714z" fill="#712506" /><path d="M409.48341 387.657143c-29.257143-36.512914-84.289829-65.828571-104.301714-65.828572-20.041143 0-78.555429 43.885714-107.812571 80.457143-2.9696 3.730286 62.186057-29.257143 109.714285-29.257143 47.542857 0 105.413486 18.373486 102.4 14.628572z" fill="#712506" opacity=".8" /><path d="M117.02901 497.371429a73.142857 43.885714 0 1 0 146.285715 0 73.142857 43.885714 0 1 0-146.285715 0Z" fill="#FF0000" fill-opacity=".295" opacity=".3" /><path d="M760.686153 497.371429a73.142857 43.885714 0 1 0 146.285714 0 73.142857 43.885714 0 1 0-146.285714 0Z" fill="#FF0000" fill-opacity=".295" opacity=".3" /><path d="M280.313125 570.514286h463.374628c1.565257 9.552457 2.369829 19.324343 2.369829 29.257143 0 113.108114-104.784457 204.8-234.057143 204.8s-234.057143-91.691886-234.057143-204.8c0-9.9328 0.804571-19.704686 2.369829-29.257143z" fill="#712506" /><path d="M649.801582 765.322971C611.152896 790.001371 563.522267 804.571429 512.000439 804.571429c-51.521829 0-99.152457-14.570057-137.801143-39.248458A160.826514 160.826514 0 0 1 512.000439 687.542857c58.455771 0 109.626514 31.158857 137.801143 77.780114z" fill="#F05F0E" /><path d="M658.286153 570.514286v14.628571a14.628571 14.628571 0 0 1-14.628571 14.628572H380.343296a14.628571 14.628571 0 0 1-14.628571-14.628572v-14.628571h292.571428z" fill="#FFFFFF" /></svg>