<?xml version="1.0" standalone="no"?><!DOCTYPE svg PUBLIC "-//W3C//DTD SVG 1.1//EN" "http://www.w3.org/Graphics/SVG/1.1/DTD/svg11.dtd"><svg class="icon" width="32px" height="32.00px" viewBox="0 0 1024 1024" version="1.1" xmlns="http://www.w3.org/2000/svg"><path d="M861.824 335.36l-135.488 392.64a82.88 82.88 0 0 1-105.28 51.328l-0.576-0.128a82.88 82.88 0 0 1-51.392-105.472l135.488-392.64a82.88 82.88 0 0 1 105.28-51.328l0.512 0.128a82.88 82.88 0 0 1 51.456 105.472z" fill="#FFBB94" /><path d="M659.2 146.24l50.688 412.16a82.816 82.816 0 0 1-72.064 92.416h-0.64a83.008 83.008 0 0 1-92.416-72.128l-50.688-412.16a82.816 82.816 0 0 1 72.128-92.352l0.64-0.128A83.008 83.008 0 0 1 659.2 146.24z" fill="#FFC19D" /><path d="M428.8 167.872l250.56 331.712a82.88 82.88 0 0 1-16.384 116.224l-0.384 0.256c-36.48 27.52-88.32 20.16-115.904-16.256L296.128 268.032a82.88 82.88 0 0 1 16.32-116.224l0.384-0.256a82.88 82.88 0 0 1 115.968 16.32z" fill="#FFC8AA" /><path d="M603.264 453.568l246.08 145.024c21.568 12.736 34.112 36.48 32.512 61.44l-13.824 212.48c-2.176 33.088-28.416 59.52-61.504 61.824l-326.848 23.04a287.808 287.808 0 0 1-260.672-80.384 79.104 79.104 0 0 1-0.128-111.808 79.04 79.04 0 0 1 109.056-1.664l2.752 2.688a127.552 127.552 0 0 0 181.632 0.96c50.304-50.752 49.856-133.76-1.024-184.96-41.92-42.304-142.848-37.504-183.424 0.832-24.832 23.424-35.392 43.072-36.416 60.48v2.88a78.08 78.08 0 0 1-78.72 78.72 80.064 80.064 0 0 1-79.488-79.552c-0.32-65.728 29.952-125.696 85.44-178.112 93.568-88.32 274.816-101.952 384.576-13.888z" fill="#FFCEB1" /></svg>